<?xml version="1.0" encoding="utf-8"?>
<!-- Generator: Adobe Illustrator 22.1.0, SVG Export Plug-In . SVG Version: 6.00 Build 0)  -->
<svg version="1.1" id="Layer_1" xmlns="http://www.w3.org/2000/svg" xmlns:xlink="http://www.w3.org/1999/xlink" x="0px" y="0px"
	 width="304.3px" height="318.4px" viewBox="0 0 304.3 318.4" style="enable-background:new 0 0 304.3 318.4;" xml:space="preserve"
	>
<path d="M271.4,44.1h-75.1c0-24.3-19.8-44.1-44.1-44.1c-24.3,0-44.1,19.8-44.1,44.1H33c-18.2,0-33,14.8-33,25v208.3
	c0,26.2,14.8,41,33,41h238.3c18.2,0,33-14.8,33-41V69.1C304.4,58.9,289.6,44.1,271.4,44.1z M152.2,27.6c9.2,0,16.5,7.4,16.5,16.5
	c0,9.2-7.4,16.5-16.5,16.5c-9.2,0-16.5-7.4-16.5-16.5C135.7,34.9,143.1,27.6,152.2,27.6z M45.2,128.2l8.7-8.7c1.4-1.4,3.8-1.4,5.2,0
	l14.2,14.3l32.8-32.5c1.4-1.4,3.8-1.4,5.2,0l8.7,8.7c1.4,1.4,1.4,3.8,0,5.2L75.8,159c-1.4,1.4-3.8,1.4-5.2,0l-25.4-25.6
	C43.8,132,43.8,129.6,45.2,128.2z M66.1,257.1c-10.9,0-19.8-8.8-19.8-19.8s8.8-19.8,19.8-19.8s19.8,8.9,19.8,19.9
	S77.1,257.1,66.1,257.1z M260.3,242.9c0,3-2.5,5.5-5.5,5.5H115.7c-3,0-5.5-2.5-5.5-5.5v-11c0-3,2.5-5.5,5.5-5.5h139.1
	c3,0,5.5,2.5,5.5,5.5V242.9z M260.3,154.7c0,3-3,5.5-6.6,5.5H108.1l22.2-22h123.4c3.6,0,6.6,2.5,6.6,5.5V154.7z"/>
</svg>
