<?xml version="1.0" encoding="utf-8"?>
<!-- Generator: Adobe Illustrator 22.1.0, SVG Export Plug-In . SVG Version: 6.00 Build 0)  -->
<svg version="1.1" id="Layer_1" xmlns="http://www.w3.org/2000/svg" xmlns:xlink="http://www.w3.org/1999/xlink" x="0px" y="0px"
	 width="544.2px" height="544.2px" viewBox="0 0 544.2 544.2" style="enable-background:new 0 0 544.2 544.2;" xml:space="preserve"
	>
<style type="text/css">
	.st0{fill:#FA6400;}
	.st1{fill:#FFFFFF;}
</style>
<path class="st0" d="M271.3-0.3C1.3-0.3-0.8,121.6-0.8,271.9S1.3,544,271.3,544s272.1-121.8,272.1-272.1S541.3-0.3,271.3-0.3z"/>
<path class="st1" d="M394.5,142.7h-75.1c0-24.3-19.8-44.1-44.1-44.1s-44.1,19.8-44.1,44.1h-75.1c-18.2,0-33,14.8-33,25V376
	c0,26.2,14.8,41,33,41h238.3c18.2,0,33-14.8,33-41V167.7C427.5,157.5,412.7,142.7,394.5,142.7z M275.3,126.2
	c9.2,0,16.5,7.4,16.5,16.5c0,9.2-7.4,16.5-16.5,16.5c-9.2,0-16.5-7.4-16.5-16.5C258.8,133.5,266.2,126.2,275.3,126.2z M168.3,226.8
	l8.7-8.7c1.4-1.4,3.8-1.4,5.2,0l14.2,14.3l32.8-32.5c1.4-1.4,3.8-1.4,5.2,0l8.7,8.7c1.4,1.4,1.4,3.8,0,5.2l-44.2,43.8
	c-1.4,1.4-3.8,1.4-5.2,0L168.3,232C166.9,230.6,166.9,228.2,168.3,226.8z M189.2,355.7c-10.9,0-19.8-8.8-19.8-19.8
	s8.8-19.8,19.8-19.8S209,325,209,336S200.2,355.7,189.2,355.7z M383.4,341.5c0,3-2.5,5.5-5.5,5.5H238.8c-3,0-5.5-2.5-5.5-5.5v-11
	c0-3,2.5-5.5,5.5-5.5h139.1c3,0,5.5,2.5,5.5,5.5V341.5z M383.4,253.3c0,3-3,5.5-6.6,5.5H231.2l22.2-22h123.4c3.6,0,6.6,2.5,6.6,5.5
	L383.4,253.3L383.4,253.3z"/>
</svg>
